<?xml version="1.0" encoding="utf-8"?>
<!-- Generator: Adobe Illustrator 18.1.1, SVG Export Plug-In . SVG Version: 6.00 Build 0)  -->
<!DOCTYPE svg PUBLIC "-//W3C//DTD SVG 1.1//EN" "http://www.w3.org/Graphics/SVG/1.1/DTD/svg11.dtd">
<svg version="1.1"
	 id="svg4672" xmlns:dc="http://purl.org/dc/elements/1.1/" xmlns:inkscape="http://www.inkscape.org/namespaces/inkscape" xmlns:sodipodi="http://sodipodi.sourceforge.net/DTD/sodipodi-0.dtd" xmlns:svg="http://www.w3.org/2000/svg" xmlns:rdf="http://www.w3.org/1999/02/22-rdf-syntax-ns#" xmlns:cc="http://web.resource.org/cc/" inkscape:output_extension="org.inkscape.output.svg.inkscape" sodipodi:version="0.32" sodipodi:docname="PublicInformationSymbol EmergencyExit.svg" inkscape:version="0.45.1" sodipodi:docbase="/home/alerante/Desktop"
	 xmlns="http://www.w3.org/2000/svg" xmlns:xlink="http://www.w3.org/1999/xlink" x="0px" y="0px" viewBox="0 0 300 300"
	 enable-background="new 0 0 300 300" xml:space="preserve">
<path id="path3495_1_" d="M62.5,121.5h27.2l24.4-30.5c4.9-5.6,12.4-9.4,20.6-9.4h52c8.2,0,15.5,4.5,19.2,11.7l15.5,29.3
	c0.7,1.2,1.2,2.6,1.2,4.5c0,5.2-4.5,9.8-9.8,9.8c-4.2,0-7-1.9-8.9-5.2L190,105.1h-22.5l17.3,43.1l5.2,55h44.5
	c7,0,12.6,4.5,15.5,10.5l4.9,12.6H178c-5.6,0-10.5-4.2-10.8-9.8l-5.2-48.3l-41.2,85.5c-2.3,4.9-7.5,8.2-13.6,8.2H87.4L138,157.4
	L122.3,118l-15,18.3c-3.7,4.9-10.1,8.2-16.9,8.2H62.5"/>
<path id="path3497" d="M121.8,37.9h1.2h1.2l1.2,0.2l0.9,0.2l0.9,0.2l0.9,0.2l0.9,0.5l0.9,0.5l0.9,0.5l0.9,0.5l0.9,0.5l0.9,0.5
	l0.7,0.7l0.7,0.7l0.7,0.7l0.7,0.7l0.7,0.7l0.7,0.7l0.7,0.7l0.7,0.9l0.5,0.9l0.5,0.9l0.5,0.9l0.5,0.9l0.5,0.9l0.2,0.9l0.2,0.9
	l0.2,0.9l0.2,0.9l0.2,1.2v1.2v1.2c0,11.7-9.8,21.1-21.3,21.1c-11.7,0-21.1-9.4-21.1-21.1S110.3,37.9,121.8,37.9z"/>
<circle cx="62.5" cy="133.1" r="11.4"/>
</svg>
